mtllib material.mtl
o Default
v 0 0 -1.0797216454250247e-8
v 0 1 0
v 1 1 0
v 1 0 -1.0797216454250247e-8
v 0 1 0
v 1 1 -1
v 0 1 -1
v 1 1 0
v 1 0 -1.0797216454250247e-8
v 1 1 -1
v 1 1 0
v 1 0 -1
v 1 0 -1
v 0 1 -1
v 1 1 -1
v 0 0 -1
v 0 0 -1
v 0 1 0
v 0 1 -1
v 0 0 -1.0797216454250247e-8
v 0 0 -1
v 1 0 -1.0797216454250247e-8
v 0 0 -1.0797216454250247e-8
v 1 -1.6336729061552924e-12 -1
vt 0.75 0.1875
vt 0.8125 0.25
vt 0.75 0.25
vt 0.75 0.1875
vt 0.8125 0.1875
vt 0.8125 0.25
vt 0.75 0.125
vt 0.8125 0.1875
vt 0.75 0.1875
vt 0.75 0.125
vt 0.8125 0.125
vt 0.8125 0.1875
vt 0.75 0.125
vt 0.8125 0.1875
vt 0.75 0.1875
vt 0.75 0.125
vt 0.8125 0.125
vt 0.8125 0.1875
vt 0.75 0.125
vt 0.8125 0.1875
vt 0.75 0.1875
vt 0.75 0.125
vt 0.8125 0.125
vt 0.8125 0.1875
vt 0.75 0.125
vt 0.8125 0.1875
vt 0.75 0.1875
vt 0.75 0.125
vt 0.8125 0.125
vt 0.8125 0.1875
vt 0.75 0.125
vt 0.8125 0.1875
vt 0.75 0.1875
vt 0.75 0.125
vt 0.8125 0.125
vt 0.8125 0.1875
vn 0 -1.0797216454250247e-8 1
vn 0 -1.0797216454250247e-8 1
vn 0 -1.0797216454250247e-8 1
vn 0 -1.0797216454250247e-8 1
vn 0 -1.0797216454250247e-8 1
vn 0 -1.0797216454250247e-8 1
vn 0 1 0
vn 0 1 0
vn 0 1 0
vn 0 1 0
vn 0 1 0
vn 0 1 0
vn 1 0 0
vn 1 0 0
vn 1 0 0
vn 1 0 0
vn 1 0 0
vn 1 0 0
vn 0 0 -1
vn 0 0 -1
vn 0 0 -1
vn 0 0 -1
vn 0 0 -1
vn 0 0 -1
vn -1 0 0
vn -1 0 0
vn -1 0 0
vn -1 0 0
vn -1 0 0
vn -1 0 0
vn 0 -1 0
vn 0 -1 0
vn 0 -1 0
vn -1.6336729061552924e-12 -1 1.6336729237944126e-12
vn -1.6336729061552924e-12 -1 1.6336729237944126e-12
vn -1.6336729061552924e-12 -1 1.6336729237944126e-12
g Bullet
usemtl material1
f 1/1/1 3/2/2 2/3/3
f 1/4/4 4/5/5 3/6/6
f 5/7/7 6/8/8 7/9/9
f 5/10/10 8/11/11 6/12/12
f 9/13/13 10/14/14 11/15/15
f 9/16/16 12/17/17 10/18/18
f 13/19/19 14/20/20 15/21/21
f 13/22/22 16/23/23 14/24/24
f 17/25/25 18/26/26 19/27/27
f 17/28/28 20/29/29 18/30/30
f 21/31/31 22/32/32 23/33/33
f 21/34/34 24/35/35 22/36/36
