mtllib material.mtl
o Default
v 0 -0.0010510971769690514 44.995548248291016
v 0 0.003448902629315853 -0.004450222477316856
v 50.25 0.003448902629315853 -0.004450222477316856
v 50.25 -0.0010510971769690514 44.995548248291016
vt 0 0
vt 1.0049999952316284 1
vt 0 1
vt 0 0
vt 1.0049999952316284 0
vt 1.0049999952316284 1
vn 0 0.9999999950000001 0.00009999999859351268
vn 0 0.9999999950000001 0.00009999999859351268
vn 0 0.9999999950000001 0.00009999999859351268
vn 0 0.9999999950000001 0.00009999999859351268
vn 0 0.9999999950000001 0.00009999999859351268
vn 0 0.9999999950000001 0.00009999999859351268
g Road
usemtl material19
f 1/1/1 3/2/2 2/3/3
f 1/4/4 4/5/5 3/6/6
